<?xml version="1.0" encoding="UTF-8" standalone="no"?>
<!-- Created with Inkscape (http://www.inkscape.org/) -->

<svg
   width="410.17123mm"
   height="131.57907mm"
   viewBox="0 0 410.17123 131.57907"
   version="1.1"
   id="svg1375"
   inkscape:version="1.2.1 (9c6d41e410, 2022-07-14, custom)"
   sodipodi:docname="iGiveLogo16123F.svg"
   xmlns:inkscape="http://www.inkscape.org/namespaces/inkscape"
   xmlns:sodipodi="http://sodipodi.sourceforge.net/DTD/sodipodi-0.dtd"
   xmlns="http://www.w3.org/2000/svg"
   xmlns:svg="http://www.w3.org/2000/svg">
  <sodipodi:namedview
     id="namedview1377"
     pagecolor="#ffffff"
     bordercolor="#666666"
     borderopacity="1.0"
     inkscape:pageshadow="2"
     inkscape:pageopacity="0.0"
     inkscape:pagecheckerboard="0"
     inkscape:document-units="mm"
     showgrid="false"
     inkscape:zoom="0.77771465"
     inkscape:cx="957.93489"
     inkscape:cy="388.96014"
     inkscape:window-width="2538"
     inkscape:window-height="1367"
     inkscape:window-x="2569"
     inkscape:window-y="1142"
     inkscape:window-maximized="1"
     inkscape:current-layer="g832"
     units="mm"
     inkscape:showpageshadow="2"
     inkscape:deskcolor="#d1d1d1" />
  <defs
     id="defs1372" />
  <g
     inkscape:label="Lag 1"
     inkscape:groupmode="layer"
     id="layer1"
     transform="translate(-4.1617073,-28.251607)">
    <g
       id="g1444"
       transform="matrix(0.03527778,0,0,-0.03527778,10.444004,247.2131)">
      <g
         id="g832"
         transform="translate(-178.08084,2476.9821)">
        <path
           d="M 1140.02,2638.4 C 760.031,2638.35 380.012,2620.69 0,2608.17 c 0,-15.97 31.0938,-299.02 47.4766,-430.76 56.9024,-1.81 90.3754,-2.22 125.7144,-3.14 309.7,-7.93 309.719,-7.78 310.118,-325.57 0.082,-63.84 0.004,-127.69 0.004,-191.53 -0.004,-499.64 -0.02,-990.389 -0.02,-1496.99 279.965,0 530.867,0 800.057,0 0,788.808 2.89,1552.26 -6.16,2324.49 -0.63,54.21 -22.9,153.75 -137.17,153.73"
           style="fill:currentColor;fill-opacity:1;fill-rule:nonzero;stroke:none"
           id="path834" />
        <path
           d="m 8381.3,2614.41 c -117.97,0 -157.98,-75.17 -183.91,-160.23 C 8055.54,1988.86 7835.91,1412.11 7668.2,897.672 7622.78,1022.79 7245.42,2071.18 7108.27,2461.11 c -22.74,64.62 -54.54,153.76 -162.08,153.76 -245.61,0 -383.55,-0.46 -669.5,-0.46 321.16,-815.31 628.59,-1651.84 942.97,-2445.922 85.66,0 582.41,0 858.58,0 315.26,765.442 628.5,1640.132 944.54,2445.922 -248.24,0 -421.13,0 -641.48,0"
           style="fill:currentColor;fill-opacity:1;fill-rule:nonzero;stroke:none"
           id="path836" />
        <path
           d="m 5207.33,170 c 264.47,0 517.07,0 777.93,0 0,822.391 0,1629.78 0,2443.89 -264.43,0 -511.92,0 -777.93,0 0,-826.81 0,-1628.839 0,-2443.89"
           style="fill:currentColor;fill-opacity:1;fill-rule:nonzero;stroke:none"
           id="path838" />
        <path
           d="m 9578.66,1728.73 c 109.96,283.32 384.53,484.51 706.74,484.51 322.1,0 596.7,-201.19 706.7,-484.51 z m 2035.14,-501.59 c 8.4,60.63 13.1,122.45 13.1,185.4 0,108.97 -13.4,214.77 -37.9,316.19 -142.2,586.59 -670.4,1022.35 -1300.7,1022.35 -739.23,0 -1338.51,-599.29 -1338.51,-1338.54 0,-530.438 308.58,-988.759 755.98,-1205.399 C 9881.89,121.871 10079.5,74 10288.3,74 c 208.8,0 406.5,47.871 582.6,133.141 216.2,104.711 399.9,265.949 532.1,464.441 l -509.8,330.708 c -138.3,-185.489 -358.7,-306.149 -607.8,-306.149 -339.67,0 -627.08,223.269 -723.75,530.999 h 1447.45 604.7"
           style="fill:currentColor;fill-opacity:1;fill-rule:nonzero;stroke:none"
           id="path840" />
        <path
           d="m 870.234,3729.8 c -233.171,0 -422.195,-189.03 -422.195,-422.2 0,-233.17 189.024,-422.2 422.195,-422.2 233.176,0 422.206,189.03 422.206,422.2 0,233.17 -189.03,422.2 -422.206,422.2"
           style="fill:currentColor;fill-opacity:1;fill-rule:nonzero;stroke:none"
           id="path842" />
        <path
           d="m 5596.29,3721.04 c -233.17,0 -422.2,-189.02 -422.2,-422.2 0,-233.17 189.03,-422.2 422.2,-422.2 233.18,0 422.2,189.03 422.2,422.2 0,233.18 -189.02,422.2 -422.2,422.2"
           style="fill:currentColor;fill-opacity:1;fill-rule:nonzero;stroke:none"
           id="path844" />
        <path
           d="M 4613.89,2172.06 H 4150.44 L 3468.6,1460.41 h 681.84 V 1412.54 933.93 C 3978.68,823.59 3774.5,759.32 3555.18,759.32 c -609.21,0 -1103.08,493.87 -1103.08,1103.08 0,609.21 493.87,1103.08 1103.08,1103.08 298.96,0 569.95,-119.1 768.62,-312.23 l -0.22,0.46 518.38,547.88 c -334.39,321.46 -788.37,519.45 -1288.86,519.45 -1027.54,0 -1860.52,-832.98 -1860.52,-1860.52 C 1692.58,832.98 2525.56,0 3553.1,0 c 505.96,0 964.47,202.25 1299.88,529.949 l 56.98,58.27 V 2172.06 h -148.54 -147.53"
           style="fill:currentColor;fill-opacity:1;fill-rule:nonzero;stroke:none"
           id="path846" />
      </g>
    </g>
  </g>
</svg>
