<svg version="1.1" id="Layer_1" xmlns="http://www.w3.org/2000/svg" xmlns:xlink="http://www.w3.org/1999/xlink" x="0px" y="0px"
	 width="100%" viewBox="0 0 774 319" enable-background="new 0 0 774 319" xml:space="preserve">
<path fill="#D3D3D4" opacity="1.000000" stroke="none" 
	d="
M753.049866,206.128754 
	C747.065308,216.772690 738.010498,224.089600 726.886780,228.434616 
	C711.899048,234.288864 696.419983,235.781189 681.001343,229.927963 
	C677.012024,228.413559 673.521912,225.573654 669.824097,223.307343 
	C668.425110,222.449921 667.087219,221.492813 665.595459,220.497025 
	C663.317200,235.556168 661.153564,249.857803 658.563416,264.473297 
	C657.132812,257.707001 652.226318,256.611206 646.088623,255.721329 
	C640.395508,254.895889 634.984131,252.035568 629.877014,256.962036 
	C631.544678,245.406815 633.276672,233.860382 634.855225,222.292999 
	C635.757874,215.678925 636.410828,209.030762 637.929810,202.192520 
	C645.619263,204.321762 652.550903,206.668777 659.492249,208.987030 
	C664.740845,210.739944 670.147095,213.013260 675.554932,210.489090 
	C678.741577,209.001663 681.168884,208.681976 684.318054,210.353882 
	C685.816040,211.149185 688.278625,213.805649 690.418152,210.087006 
	C700.784363,212.144073 709.504944,208.819107 718.247681,203.960739 
	C719.394836,203.266830 720.176575,202.571808 721.013062,201.642609 
	C721.251770,201.104309 721.521362,200.954895 722.266907,200.925842 
	C724.991943,200.998566 728.406555,200.160355 729.472778,201.378174 
	C733.834839,206.360504 739.067200,204.756943 743.640137,203.353500 
	C747.958191,202.028275 750.447266,203.407150 753.049866,206.128754 
z"/>
<path fill="#E6E6E7" opacity="1.000000" stroke="none" 
	d="
M676.826538,128.994904 
	C676.812073,130.876968 676.797607,132.759048 676.192200,134.653534 
	C675.210510,134.137131 674.819702,133.608307 674.247681,132.834259 
	C674.247681,135.234131 674.247681,137.143845 674.247681,139.163361 
	C678.295105,139.221680 681.162048,138.060226 681.924316,133.876953 
	C681.924316,133.876953 681.964417,133.963211 682.264893,133.960342 
	C685.536194,133.003510 689.623352,133.676041 689.959290,128.882843 
	C699.552002,123.266670 709.737549,122.442612 720.678894,123.749062 
	C732.494507,125.159897 742.561035,129.425583 750.555603,138.114578 
	C758.396729,146.636841 763.023560,156.695465 762.952087,168.476807 
	C762.920471,173.696701 762.317688,178.913132 761.554199,184.458038 
	C760.966797,182.976501 760.700012,181.170853 760.649475,179.359146 
	C760.462097,172.641769 760.346008,165.922409 760.203125,159.203812 
	C759.599426,159.105637 758.995789,159.007462 758.392090,158.909286 
	C756.652771,160.515198 755.150146,162.616806 753.109314,163.591263 
	C750.957092,164.618896 748.306091,164.786118 745.847229,164.955750 
	C734.442749,165.742477 733.613281,166.467163 734.129456,178.026718 
	C734.246460,180.646790 733.583374,181.728561 731.095703,181.567963 
	C733.055359,173.280807 732.388245,165.543762 728.058777,158.761765 
	C721.728271,148.845367 712.218994,145.522644 700.627991,146.927887 
	C687.811768,148.481720 678.659363,154.681702 673.765381,166.734833 
	C672.271606,170.413773 671.135193,174.237808 669.480957,177.887665 
	C668.986206,175.972412 668.857117,174.163910 668.702271,172.357635 
	C668.498718,169.983963 669.169556,166.853333 667.909119,165.366928 
	C661.470581,157.773743 651.476196,156.591492 643.868774,161.960831 
	C644.283020,157.092056 644.697327,152.223282 645.858521,147.085480 
	C647.360901,143.908981 648.070496,140.988586 648.883484,138.097260 
	C649.924622,134.394470 648.904541,128.676117 654.114197,128.273270 
	C661.621460,127.692749 669.249817,128.677917 676.826538,128.994904 
z"/>
<path fill="#E5E5E5" opacity="1.000000" stroke="none" 
	d="
M361.993500,126.158920 
	C362.427002,126.097809 362.860474,126.036690 363.690491,126.257126 
	C364.669312,126.920334 365.251617,127.301994 365.833923,127.683655 
	C366.198120,126.748596 366.562347,125.813538 366.926575,124.878494 
	C366.926605,124.878494 366.954712,124.964104 367.326324,124.944939 
	C368.383545,124.544968 369.647980,124.191078 369.667114,123.779312 
	C369.917938,118.384804 369.992798,112.982124 370.111816,107.581490 
	C370.101105,107.295815 370.090363,107.010139 370.453278,106.752342 
	C370.836060,106.610809 370.845215,106.441399 370.854370,106.271980 
	C370.854370,106.271980 370.461212,106.547035 370.692200,106.187439 
	C372.083038,99.433929 376.317108,98.323944 382.018219,98.920204 
	C386.113739,99.348549 390.291534,98.943108 394.429626,99.039276 
	C395.772247,99.070465 397.105347,99.512161 398.656769,99.806732 
	C397.572968,103.044853 396.712830,105.614784 395.760590,108.459793 
	C396.954041,108.667191 397.894684,108.830650 398.835327,108.994118 
	C398.151031,114.109558 397.466736,119.224991 396.749420,124.587173 
	C405.523499,125.087357 413.991974,125.570114 423.154449,126.092438 
	C422.353058,133.012054 421.778137,139.755814 420.599609,146.392410 
	C420.404236,147.492706 417.597076,148.799423 415.955902,148.857727 
	C408.512085,149.122192 401.053589,148.973480 393.529358,148.973480 
	C392.655914,155.442703 391.814514,161.674484 390.536713,168.005219 
	C389.905426,165.388672 389.401581,162.651749 389.587982,159.962677 
	C389.870178,155.890625 390.632751,151.851852 391.191223,147.798935 
	C390.458191,147.659470 389.725159,147.520020 388.992126,147.380554 
	C388.218689,149.737381 387.445251,152.094193 386.714111,154.322098 
	C380.166412,152.658417 373.618988,150.994797 368.733917,149.753555 
	C366.301666,153.170700 364.595032,155.568375 362.888428,157.966064 
	C363.226929,154.801163 363.565430,151.636276 363.931305,148.215607 
	C357.776978,148.215607 351.962555,148.215607 346.105927,148.215607 
	C346.514496,144.419006 346.840424,141.390564 347.902466,138.089050 
	C349.159729,136.519684 350.001465,135.257477 350.143555,133.920898 
	C350.623108,129.411575 352.487488,127.103035 357.462250,127.871346 
	C358.851379,128.085892 360.476593,126.771782 361.993500,126.158920 
z"/>
<path fill="#E5E5E5" opacity="1.000000" stroke="none" 
	d="
M442.891632,157.960663 
	C443.020782,155.062561 443.149963,152.164459 443.291260,148.993851 
	C439.873993,148.993851 436.108704,149.154297 432.364319,148.943542 
	C429.319885,148.772186 426.110443,148.353394 427.477173,143.397430 
	C430.708710,140.457855 431.369263,134.485428 429.153076,132.006363 
	C429.100677,131.556519 429.048279,131.106659 429.450317,130.260559 
	C432.415314,129.242950 434.948792,128.699753 437.428040,127.971764 
	C438.991760,127.512611 440.474304,126.777084 441.993256,126.165527 
	C442.427155,126.103691 442.861053,126.041847 443.691406,126.260361 
	C444.666595,126.923851 445.245270,127.306976 445.823975,127.690109 
	C446.197296,126.760796 446.570587,125.831490 446.943909,124.902184 
	C446.943909,124.902184 446.978577,124.978676 447.348572,124.955994 
	C448.476654,123.895210 449.707306,122.941635 449.910706,121.804337 
	C450.779114,116.948586 451.161469,112.003464 452.091553,107.162125 
	C452.611359,104.456619 453.856750,101.890518 455.061066,98.443344 
	C461.335358,98.443344 468.266602,98.420929 475.197571,98.455254 
	C477.691193,98.467613 478.568024,99.385811 478.051392,102.197342 
	C477.647339,104.395996 478.525757,106.830315 478.834351,109.159912 
	C478.157898,112.357353 477.364166,115.536140 476.851379,118.759613 
	C476.569427,120.531944 476.760315,122.379501 476.755432,124.875984 
	C477.700989,126.371994 478.594147,127.835617 479.563171,127.887711 
	C484.186371,128.136215 488.847443,127.758659 493.460663,128.087036 
	C496.615845,128.311600 499.714539,129.330170 502.838470,129.993774 
	C502.223114,135.472778 501.797180,140.985672 500.828918,146.401566 
	C500.640381,147.455978 498.364410,148.825943 497.013306,148.869385 
	C489.540192,149.109665 482.055298,148.984421 474.184692,148.984421 
	C473.409485,151.751617 472.651581,154.457047 471.293030,156.963043 
	C470.690186,154.654846 471.010925,152.475250 470.569672,150.462753 
	C470.285889,149.168549 469.121887,147.577759 467.938690,147.053391 
	C462.210266,144.514664 457.031769,148.231171 451.622223,149.119736 
	C449.870361,149.407471 448.528503,152.152222 446.984985,153.759552 
	C445.630798,155.169769 444.256866,156.561035 442.891632,157.960663 
z"/>
<path fill="#D9D9DA" opacity="1.000000" stroke="none" 
	d="
M340.841919,175.993362 
	C340.894043,176.985840 340.987610,177.978119 340.991852,178.970810 
	C341.028198,187.476990 340.517975,187.888626 332.305908,188.029846 
	C319.597321,188.248383 306.892975,188.764008 294.184204,188.892014 
	C288.948792,188.944748 283.699615,187.977097 278.468994,188.082626 
	C270.763855,188.238098 263.069641,188.938538 254.088394,189.484879 
	C255.656326,193.211929 257.092804,196.626511 258.285339,200.440491 
	C253.918564,200.628464 250.894897,198.748489 248.883530,195.091568 
	C248.415359,194.240402 247.173340,193.007935 246.590576,193.154694 
	C242.031433,194.302994 236.220291,194.514801 233.461349,197.488724 
	C231.287247,199.832245 229.677917,206.034241 234.502930,209.876938 
	C234.891251,210.186203 234.113083,211.960114 233.876968,213.053406 
	C227.937042,207.384293 225.912506,199.917664 225.141602,192.220230 
	C224.551407,186.327438 225.136810,180.316910 225.791931,174.357193 
	C226.811722,174.263031 227.516113,174.297852 227.625778,174.059296 
	C230.736572,167.291946 232.640472,166.632019 239.879257,169.346619 
	C241.976425,170.133072 244.605621,171.095810 246.518585,170.488922 
	C253.090790,168.403824 258.991272,171.628052 265.206421,172.049438 
	C267.712036,172.219345 270.256531,171.759689 272.771088,171.868729 
	C275.681427,171.994949 278.572357,172.532379 281.482788,172.702942 
	C283.901886,172.844711 286.340759,172.795670 288.763977,172.682632 
	C291.692352,172.546021 294.980316,171.279205 297.466583,172.216080 
	C304.063232,174.701797 310.009949,174.560654 315.913513,170.652878 
	C316.862427,170.024780 318.656372,169.380829 319.331512,169.832535 
	C325.772430,174.141922 332.015625,170.373993 337.994171,169.800812 
	C338.939362,171.856216 339.890625,173.924789 340.841919,175.993362 
z"/>
<path fill="#D0D0D1" opacity="1.000000" stroke="none" 
	d="
M233.930161,213.369263 
	C234.113083,211.960114 234.891251,210.186203 234.502930,209.876938 
	C229.677917,206.034241 231.287247,199.832245 233.461349,197.488724 
	C236.220291,194.514801 242.031433,194.302994 246.590576,193.154694 
	C247.173340,193.007935 248.415359,194.240402 248.883530,195.091568 
	C250.894897,198.748489 253.918564,200.628464 258.484314,200.781525 
	C271.457886,215.060669 295.170410,211.784546 308.647797,204.258774 
	C310.869965,204.517700 312.660431,204.517700 314.016846,204.517700 
	C316.451355,205.691559 318.793640,206.820953 321.135956,207.950348 
	C321.713867,208.408157 322.291779,208.865952 322.940460,209.951508 
	C322.814545,211.840424 322.617828,213.101608 322.264893,215.364380 
	C324.021698,214.211990 325.034943,213.547348 326.048187,212.882706 
	C326.334442,213.052048 326.620667,213.221390 326.956329,214.013794 
	C325.969208,215.943192 324.949402,217.263229 323.891907,218.552338 
	C322.627411,220.093735 321.330658,221.608688 320.047913,223.135101 
	C320.041199,223.483627 319.889069,223.748688 319.142029,224.068512 
	C318.404510,224.349182 318.179413,224.559128 318.017273,224.836609 
	C308.609985,229.946899 298.550690,232.852966 287.855408,232.955948 
	C277.588196,233.054825 267.292389,234.031006 257.234619,230.175629 
	C249.666290,227.274536 242.859665,223.552429 237.085205,217.119812 
	C236.294113,216.027222 235.618729,215.580139 234.943329,215.133072 
	C234.623337,214.650421 234.303345,214.167770 233.930161,213.369263 
z"/>
<path fill="#D2D2D3" opacity="1.000000" stroke="none" 
	d="
M519.836060,222.060532 
	C519.264893,221.603363 518.693726,221.146194 518.048157,220.029999 
	C518.674622,216.217728 519.375488,213.064453 519.770935,211.285324 
	C532.714172,209.329376 542.826965,218.458817 554.563110,214.988663 
	C554.313171,212.422577 554.154480,210.793549 553.995850,209.164536 
	C558.713928,209.113449 563.432007,209.062347 568.585815,209.416733 
	C570.044983,213.866302 571.654480,210.446930 572.844666,210.028030 
	C578.804016,207.930527 584.545959,203.241623 590.980469,209.159592 
	C591.667542,209.791489 593.457397,209.475723 594.668396,209.245697 
	C602.338135,207.788803 610.111938,205.165100 616.825012,211.832336 
	C616.203430,217.451965 615.713257,223.092422 614.829346,228.670486 
	C614.684204,229.586548 612.822510,230.870865 611.730225,230.894867 
	C603.299255,231.080154 594.862366,230.996902 585.759705,230.996902 
	C586.160828,226.933929 586.521667,223.279510 586.907593,219.370560 
	C582.165649,222.493912 577.854492,226.240860 572.863037,228.451950 
	C557.573181,235.224915 542.057922,235.767090 526.733521,228.207733 
	C525.469788,227.584351 524.387451,226.593201 523.057617,225.094574 
	C521.874939,223.631012 520.855530,222.845779 519.836060,222.060532 
z"/>
<path fill="#E6E6E7" opacity="1.000000" stroke="none" 
	d="
M240.866852,143.954239 
	C251.613113,131.606583 265.390991,125.873604 281.473969,123.810089 
	C294.871094,122.091187 307.271973,124.001671 319.087891,130.073318 
	C325.372284,133.302582 330.685699,137.832764 333.666565,144.653671 
	C324.528473,145.013687 315.213013,154.679123 315.515289,163.364883 
	C315.533630,163.892166 314.641907,164.451126 314.097565,164.614792 
	C311.610901,159.942047 310.128784,154.545532 306.602295,151.580582 
	C298.505432,144.772980 288.790070,144.318207 278.505127,146.759613 
	C269.759949,148.835510 264.466675,154.782990 258.875549,160.844482 
	C258.629211,160.023575 258.423981,159.307404 258.661926,158.798416 
	C261.941437,151.783249 261.952240,151.801239 254.233810,148.913437 
	C253.157028,148.510559 251.805328,148.206390 251.160522,147.395569 
	C248.424210,143.954727 244.756042,143.715607 240.866852,143.954239 
z"/>
<path fill="#E0E1E2" opacity="1.000000" stroke="none" 
	d="
M240.634827,144.010086 
	C244.756042,143.715607 248.424210,143.954727 251.160522,147.395569 
	C251.805328,148.206390 253.157028,148.510559 254.233810,148.913437 
	C261.952240,151.801239 261.941437,151.783249 258.661926,158.798416 
	C258.423981,159.307404 258.629211,160.023575 258.814819,161.231277 
	C258.238281,163.698975 257.475403,165.578812 256.680634,167.537292 
	C264.783936,168.044434 272.321564,168.878998 279.861450,168.900055 
	C290.265625,168.929108 300.670166,168.222504 311.077576,168.109558 
	C313.633118,168.081848 314.242188,167.130676 314.173645,164.995346 
	C314.641907,164.451126 315.533630,163.892166 315.515289,163.364883 
	C315.213013,154.679123 324.528473,145.013687 333.752869,145.007263 
	C338.884552,150.323212 340.294708,156.887695 340.937927,163.624344 
	C341.299072,167.406982 340.996796,171.252960 340.917664,175.531891 
	C339.890625,173.924789 338.939362,171.856216 337.994171,169.800812 
	C332.015625,170.373993 325.772430,174.141922 319.331512,169.832535 
	C318.656372,169.380829 316.862427,170.024780 315.913513,170.652878 
	C310.009949,174.560654 304.063232,174.701797 297.466583,172.216080 
	C294.980316,171.279205 291.692352,172.546021 288.763977,172.682632 
	C286.340759,172.795670 283.901886,172.844711 281.482788,172.702942 
	C278.572357,172.532379 275.681427,171.994949 272.771088,171.868729 
	C270.256531,171.759689 267.712036,172.219345 265.206421,172.049438 
	C258.991272,171.628052 253.090790,168.403824 246.518585,170.488922 
	C244.605621,171.095810 241.976425,170.133072 239.879257,169.346619 
	C232.640472,166.632019 230.736572,167.291946 227.625778,174.059296 
	C227.516113,174.297852 226.811722,174.263031 226.169205,174.130432 
	C226.637329,165.195038 230.657288,157.777115 235.433105,150.549286 
	C236.225555,149.677048 236.606750,148.748169 236.987946,147.819305 
	C236.987946,147.819305 236.998138,147.648712 237.469147,147.675964 
	C238.610519,146.757782 239.280899,145.812347 239.951294,144.866913 
	C239.952774,144.515900 240.103271,144.248917 240.634827,144.010086 
z"/>
<path fill="#D2D2D3" opacity="1.000000" stroke="none" 
	d="
M468.832336,205.996979 
	C475.918610,212.522583 483.038513,209.448914 491.133362,205.490402 
	C492.468018,212.567612 493.843018,219.261292 494.868378,226.008118 
	C495.005493,226.910248 493.584930,228.599854 492.522583,229.031876 
	C489.121887,230.414871 485.624878,231.833603 482.031433,232.420288 
	C469.840912,234.410583 457.575775,235.051407 447.186127,226.857239 
	C443.719147,224.122940 441.675598,219.583847 439.104492,215.173584 
	C439.438843,213.854202 439.904541,213.194839 439.821808,212.613495 
	C439.001160,206.845184 439.082581,206.697540 444.794983,207.031219 
	C446.100769,207.107498 447.383331,207.656082 448.685974,207.698303 
	C455.182617,207.908920 461.412140,207.222214 466.053864,201.866699 
	C466.053864,201.866699 466.536377,201.991760 466.763824,202.400589 
	C467.604950,203.871933 468.218628,204.934448 468.832336,205.996979 
z"/>
<path fill="#DCDCDD" opacity="1.000000" stroke="none" 
	d="
M731.166748,181.991760 
	C733.583374,181.728561 734.246460,180.646790 734.129456,178.026718 
	C733.613281,166.467163 734.442749,165.742477 745.847229,164.955750 
	C748.306091,164.786118 750.957092,164.618896 753.109314,163.591263 
	C755.150146,162.616806 756.652771,160.515198 758.392090,158.909286 
	C758.995789,159.007462 759.599426,159.105637 760.203125,159.203812 
	C760.346008,165.922409 760.462097,172.641769 760.649475,179.359146 
	C760.700012,181.170853 760.966797,182.976501 761.476746,184.887329 
	C759.110901,191.928711 756.402649,198.867706 753.372192,205.967712 
	C750.447266,203.407150 747.958191,202.028275 743.640137,203.353500 
	C739.067200,204.756943 733.834839,206.360504 729.472778,201.378174 
	C728.406555,200.160355 724.991943,200.998566 722.331482,200.569809 
	C725.059448,194.162689 728.113098,188.077240 731.166748,181.991760 
z"/>
<path fill="#D0D0D1" opacity="1.000000" stroke="none" 
	d="
M413.851379,222.993301 
	C416.868683,226.910110 416.665558,228.537659 412.121735,229.964874 
	C399.638214,233.885941 386.952240,235.663513 374.274567,230.927475 
	C366.547791,228.040924 360.967224,222.708450 358.480652,214.297592 
	C358.424316,213.244156 358.115967,212.616028 357.807617,211.987885 
	C357.570190,211.668854 357.332764,211.349838 357.547546,210.509735 
	C358.332794,209.658707 358.665802,209.328751 359.444336,208.999176 
	C369.922180,208.522644 379.954468,208.045715 389.986786,207.568771 
	C393.403381,208.051376 396.819946,208.533981 400.569000,209.382172 
	C400.608307,210.448776 400.315155,211.149796 400.022034,211.850830 
	C401.396729,212.035812 402.896729,212.671173 404.124847,212.329407 
	C410.096558,210.667511 410.112823,210.566437 411.322479,216.573151 
	C411.604126,217.971741 411.236176,219.530472 411.655945,220.861343 
	C411.926025,221.717636 413.088715,222.292374 413.851379,222.993301 
z"/>
<path fill="#4294AD" opacity="1.000000" stroke="none" 
	d="
M45.941269,114.888962 
	C46.064850,114.011307 46.188427,113.133652 47.042099,112.115616 
	C54.664940,112.866394 61.538971,114.207947 68.456787,114.495255 
	C73.317123,114.697121 77.777122,117.599236 83.192116,115.320343 
	C86.631973,113.872665 91.288940,114.763153 95.287781,115.359001 
	C99.015953,115.914513 102.559334,117.609673 106.249329,118.545959 
	C111.483231,119.873993 114.077950,118.288208 116.040131,112.915955 
	C119.350449,118.362740 122.660759,123.809525 125.624390,129.632416 
	C118.537941,130.670761 111.801750,131.373215 105.056282,131.971069 
	C102.997772,132.153519 100.898216,132.214706 98.846336,132.022705 
	C97.177917,131.866608 95.023712,131.762863 94.019196,130.728546 
	C91.974960,128.623672 90.694206,129.233551 89.223282,131.044113 
	C88.422531,132.029770 87.672005,133.056244 86.898819,134.064316 
	C84.582199,130.562225 82.265579,127.060135 79.429634,122.772972 
	C78.487938,125.995499 77.725296,128.605286 76.557335,131.526535 
	C75.098099,130.600769 74.209702,129.143661 72.942513,128.189713 
	C71.737534,127.282600 70.105476,126.315170 68.715248,126.389206 
	C62.315304,126.730049 55.940609,127.552750 49.540363,127.872513 
	C48.442871,127.927345 46.398418,126.490952 46.279251,125.554176 
	C45.832428,122.041611 46.002453,118.450584 45.941269,114.888962 
z"/>
<path fill="#2A638A" opacity="1.000000" stroke="none" 
	d="
M193.714127,181.336990 
	C192.169006,185.682907 190.623901,190.028824 188.641800,194.844131 
	C186.366211,194.251328 184.575958,192.382553 182.680511,192.268936 
	C175.145584,191.817337 167.508881,191.239258 160.042297,192.002914 
	C153.057343,192.717285 146.269440,195.210785 139.339798,196.657791 
	C133.289429,197.921219 127.440163,197.007233 121.965446,194.034134 
	C121.965446,194.034134 121.994469,194.000000 121.904236,193.815155 
	C121.664162,193.374542 121.459343,193.175247 121.199570,193.032455 
	C120.142082,191.267883 119.084595,189.503311 118.288467,187.247238 
	C122.026222,184.088455 125.204453,181.129395 130.036346,180.733307 
	C138.044296,180.076889 146.012543,178.936234 153.997528,177.999588 
	C154.808945,177.099380 155.620346,176.199188 156.728973,175.518555 
	C159.618805,179.515823 164.975250,181.821030 169.295685,180.300232 
	C177.650726,177.359222 185.722672,177.486542 193.714127,181.336990 
z"/>
<path fill="#459DB3" opacity="1.000000" stroke="none" 
	d="
M116.002792,112.559662 
	C114.077950,118.288208 111.483231,119.873993 106.249329,118.545959 
	C102.559334,117.609673 99.015953,115.914513 95.287781,115.359001 
	C91.288940,114.763153 86.631973,113.872665 83.192116,115.320343 
	C77.777122,117.599236 73.317123,114.697121 68.456787,114.495255 
	C61.538971,114.207947 54.664940,112.866394 47.337452,111.955215 
	C48.030598,106.752533 49.158485,101.569862 50.957863,96.247177 
	C54.669914,100.926773 59.366562,102.020142 64.679070,102.471909 
	C73.288185,103.204002 81.523300,103.623192 89.570160,98.966431 
	C94.385132,96.179970 99.861176,92.918282 106.074135,95.965263 
	C109.371246,101.377960 112.668350,106.790657 116.002792,112.559662 
z"/>
<path fill="#214E7B" opacity="1.000000" stroke="none" 
	d="
M183.014603,209.011185 
	C180.587631,215.798492 178.270065,222.629379 175.603348,229.321152 
	C175.246445,230.216751 173.131134,230.836395 171.818451,230.857529 
	C163.208420,230.995926 154.593124,231.028839 145.985123,230.840683 
	C144.639465,230.811264 142.791656,229.814972 142.081665,228.692780 
	C138.570648,223.143326 135.363953,217.401337 132.415359,211.362701 
	C136.234024,210.483871 139.793594,210.341141 143.121552,209.388901 
	C155.405029,205.874191 167.860275,208.670898 180.214142,208.102249 
	C181.131744,208.060013 182.080383,208.692413 183.014603,209.011185 
z"/>
<path fill="#50B8C6" opacity="1.000000" stroke="none" 
	d="
M201.881363,44.950325 
	C219.403290,34.571953 236.925217,24.193584 255.974304,12.910666 
	C255.974304,19.614248 255.974304,24.814674 255.995117,30.923988 
	C256.015930,34.478184 256.015930,37.123493 256.015930,39.681957 
	C254.758850,39.179043 253.427628,38.101871 252.594116,38.402901 
	C247.795975,40.135757 242.467148,41.347416 238.549820,44.345154 
	C232.900513,48.668262 227.433258,51.335449 220.080368,51.193844 
	C213.105240,51.059513 206.655914,50.857372 201.881363,44.950325 
z"/>
<path fill="#4DB1C2" opacity="1.000000" stroke="none" 
	d="
M201.562469,44.968571 
	C206.655914,50.857372 213.105240,51.059513 220.080368,51.193844 
	C227.433258,51.335449 232.900513,48.668262 238.549820,44.345154 
	C242.467148,41.347416 247.795975,40.135757 252.594116,38.402901 
	C253.427628,38.101871 254.758850,39.179043 256.015930,39.681957 
	C256.015930,37.123493 256.015930,34.478184 256.025940,31.385937 
	C256.353302,33.632305 256.815521,36.318188 256.953949,39.020660 
	C257.161682,43.075058 257.142212,47.141090 257.112305,51.978966 
	C255.926285,53.833984 255.028305,55.303188 253.728729,55.904617 
	C251.413116,56.976250 248.371170,56.911125 246.485626,58.400719 
	C240.009171,63.517139 231.582413,61.555519 224.702728,64.931557 
	C224.317307,65.120697 223.713882,64.802902 223.233917,64.872581 
	C220.786392,65.227844 218.166611,65.196442 215.940643,66.111595 
	C211.316208,68.012825 207.939545,66.646469 206.946823,61.943420 
	C205.810287,60.952240 204.792603,59.750145 203.506058,59.025139 
	C202.014297,58.184502 200.286392,57.762920 198.117340,56.794823 
	C197.032135,56.309704 196.490585,56.189198 195.949051,56.068691 
	C195.949051,56.068691 195.988953,56.001942 195.905884,55.680805 
	C194.581711,54.481155 193.340591,53.602642 192.061356,52.697155 
	C194.463104,50.325310 196.690750,48.125404 198.918381,45.925495 
	C198.918381,45.925491 198.973923,45.968353 199.163010,45.877666 
	C199.623840,45.637924 199.833801,45.427269 199.981979,45.155018 
	C200.402512,45.098949 200.823029,45.042881 201.562469,44.968571 
z"/>
<path fill="#E5E5E5" opacity="1.000000" stroke="none" 
	d="
M515.166626,163.644440 
	C516.234741,155.797775 517.303467,147.951172 518.370605,140.104370 
	C518.631226,138.187866 518.887024,136.270706 519.877075,134.092010 
	C522.113708,131.904663 523.567261,128.372314 525.131409,128.322662 
	C533.352661,128.061676 541.601929,128.681046 549.841431,128.994736 
	C548.225647,140.386230 546.609863,151.777725 544.572632,163.492599 
	C541.638733,162.551712 539.250122,160.798615 536.588196,160.124298 
	C530.936401,158.692596 525.142334,157.822464 518.958313,156.636124 
	C518.117371,158.190506 516.641968,160.917480 515.166626,163.644440 
z"/>
<path fill="#265A83" opacity="1.000000" stroke="none" 
	d="
M183.301285,208.798584 
	C182.080383,208.692413 181.131744,208.060013 180.214142,208.102249 
	C167.860275,208.670898 155.405029,205.874191 143.121552,209.388901 
	C139.793594,210.341141 136.234024,210.483871 132.386963,211.002045 
	C128.678650,205.586227 125.364136,200.166519 122.007538,194.390472 
	C127.440163,197.007233 133.289429,197.921219 139.339798,196.657791 
	C146.269440,195.210785 153.057343,192.717285 160.042297,192.002914 
	C167.508881,191.239258 175.145584,191.817337 182.680511,192.268936 
	C184.575958,192.382553 186.366211,194.251328 188.479126,195.179245 
	C187.031631,199.558640 185.309799,204.072311 183.301285,208.798584 
z"/>
<path fill="#4CABBE" opacity="1.000000" stroke="none" 
	d="
M206.627258,62.120983 
	C207.939545,66.646469 211.316208,68.012825 215.940643,66.111595 
	C218.166611,65.196442 220.786392,65.227844 223.233917,64.872581 
	C223.713882,64.802902 224.317307,65.120697 224.702728,64.931557 
	C231.582413,61.555519 240.009171,63.517139 246.485626,58.400719 
	C248.371170,56.911125 251.413116,56.976250 253.728729,55.904617 
	C255.028305,55.303188 255.926285,53.833984 257.021210,52.341637 
	C257.565460,54.404377 258.342194,56.858418 258.572296,59.362675 
	C259.117188,65.294159 259.402588,71.249474 259.867615,78.333305 
	C252.398254,74.652016 245.907059,71.452812 239.547485,68.318489 
	C237.900604,72.547241 236.317261,76.612846 234.139801,81.042160 
	C232.547348,82.049805 231.548996,82.693756 230.550629,83.337708 
	C228.462555,79.280861 224.675201,81.057640 221.693512,81.109665 
	C213.740768,81.248405 208.268646,76.834961 202.945374,71.894501 
	C204.066147,68.695847 205.186920,65.497192 206.627258,62.120983 
M231.511627,81.441772 
	C231.511627,81.441772 231.551758,81.519333 231.511627,81.441772 
z"/>
<path fill="#DADADB" opacity="1.000000" stroke="none" 
	d="
M689.994080,210.164291 
	C688.278625,213.805649 685.816040,211.149185 684.318054,210.353882 
	C681.168884,208.681976 678.741577,209.001663 675.554932,210.489090 
	C670.147095,213.013260 664.740845,210.739944 659.492249,208.987030 
	C652.550903,206.668777 645.619263,204.321762 638.288330,201.974915 
	C638.317810,197.761703 638.742249,193.560684 639.822693,189.254166 
	C642.594727,183.076401 647.866211,185.893875 651.884338,184.824448 
	C658.023682,183.190460 663.864563,183.772598 669.910706,185.431580 
	C670.206726,188.298737 670.070312,190.825150 670.703186,193.141327 
	C673.388733,202.969482 680.937622,207.460739 689.994080,210.164291 
z"/>
<path fill="#E6E6E7" opacity="1.000000" stroke="none" 
	d="
M594.180420,165.009766 
	C594.907288,159.079193 595.651245,153.150635 596.353027,147.217102 
	C596.658813,144.631500 596.878174,142.035706 597.877014,139.143555 
	C598.986450,138.531128 599.573914,138.285278 599.690369,137.897858 
	C600.653381,134.693466 600.572632,129.952545 602.673279,128.622086 
	C605.305298,126.955101 609.705872,128.073242 613.343384,128.005249 
	C614.668396,127.980492 615.994568,127.983871 617.319641,128.004730 
	C628.429993,128.179672 626.657593,126.449074 625.577026,138.038773 
	C625.397095,139.968506 626.375854,142.006256 626.819214,143.994080 
	C626.207214,148.050873 625.595276,152.107635 624.564819,156.481354 
	C623.878479,153.995651 623.610657,151.193008 623.342834,148.390366 
	C622.942261,147.880020 622.541748,147.369690 622.141174,146.859344 
	C618.053589,159.066345 607.910950,156.012466 599.624146,157.636658 
	C598.587463,160.054642 597.627686,162.511429 596.430908,164.846664 
	C596.252747,165.194214 594.958435,164.969650 594.180420,165.009766 
z"/>
<path fill="#4499B0" opacity="1.000000" stroke="none" 
	d="
M224.837509,102.958801 
	C223.877869,106.054214 222.918243,109.149620 221.692795,112.758675 
	C221.215591,113.469376 221.076691,113.708542 221.010284,113.989815 
	C220.876709,114.576111 220.743149,115.162415 219.961487,115.834824 
	C213.459595,113.782295 207.635590,112.386246 201.175690,112.793411 
	C195.822037,113.130844 190.353928,111.652252 184.936523,110.978218 
	C187.355988,105.172607 189.744568,99.353844 192.208633,93.567223 
	C193.345383,90.897659 194.629669,88.290932 196.396835,85.329483 
	C204.155838,88.706985 211.506836,92.167427 218.499710,96.242455 
	C221.050659,97.729004 222.749771,100.677361 224.837509,102.958801 
z"/>
<path fill="#4AA7BC" opacity="1.000000" stroke="none" 
	d="
M106.018387,95.611771 
	C99.861176,92.918282 94.385132,96.179970 89.570160,98.966431 
	C81.523300,103.623192 73.288185,103.204002 64.679070,102.471909 
	C59.366562,102.020142 54.669914,100.926773 51.283897,96.038300 
	C52.041534,91.097992 53.144627,86.226547 54.893677,81.317596 
	C59.532124,82.520119 63.447411,84.300011 67.533669,84.884308 
	C75.299896,85.994820 83.303665,85.771233 90.927658,87.409744 
	C94.667870,88.213577 97.383308,88.882103 100.090736,85.956879 
	C102.048035,89.057343 104.005333,92.157806 106.018387,95.611771 
z"/>
<path fill="#DADADB" opacity="1.000000" stroke="none" 
	d="
M358.998779,208.998779 
	C358.665802,209.328751 358.332794,209.658707 357.759979,210.254822 
	C357.826324,202.057343 357.894165,193.576050 358.518280,185.135910 
	C358.970856,179.015701 360.160370,172.949966 361.441833,166.477173 
	C363.554840,166.639725 366.426239,166.802353 366.747711,167.792679 
	C368.774384,174.036316 373.280243,173.436386 378.030731,172.475235 
	C384.459808,171.174469 385.365662,171.731033 387.084656,177.958725 
	C387.299988,178.738846 388.233948,179.320602 388.834961,179.994263 
	C388.219086,187.029083 387.603241,194.063919 386.543213,201.426849 
	C385.727692,199.061951 385.243591,196.378540 385.012634,193.673523 
	C384.702576,190.041870 382.927948,189.386047 380.012238,191.055298 
	C378.880249,191.703384 378.077423,193.004654 376.909149,193.496536 
	C373.378693,194.983002 369.766724,197.220276 366.141815,197.307510 
	C361.205933,197.426300 359.092346,198.430649 359.005676,203.512070 
	C358.974487,205.340485 358.999420,207.169846 358.998779,208.998779 
z"/>
<path fill="#E0E1E2" opacity="1.000000" stroke="none" 
	d="
M669.832092,184.994125 
	C663.864563,183.772598 658.023682,183.190460 651.884338,184.824448 
	C647.866211,185.893875 642.594727,183.076401 640.181458,189.050171 
	C640.973267,180.086746 642.062256,171.221802 643.510010,162.158844 
	C651.476196,156.591492 661.470581,157.773743 667.909119,165.366928 
	C669.169556,166.853333 668.498718,169.983963 668.702271,172.357635 
	C668.857117,174.163910 668.986206,175.972412 669.557190,178.320099 
	C669.935791,180.904892 669.883911,182.949509 669.832092,184.994125 
z"/>
<path fill="#E0E1E2" opacity="1.000000" stroke="none" 
	d="
M594.097168,165.421570 
	C594.958435,164.969650 596.252747,165.194214 596.430908,164.846664 
	C597.627686,162.511429 598.587463,160.054642 599.624146,157.636658 
	C607.910950,156.012466 618.053589,159.066345 622.141174,146.859344 
	C622.541748,147.369690 622.942261,147.880020 623.342834,148.390366 
	C623.610657,151.193008 623.878479,153.995651 624.489380,156.896423 
	C623.498718,165.564606 622.165039,174.134644 620.180420,182.669846 
	C611.611511,179.505173 603.693481,176.375336 596.455566,173.514297 
	C594.677856,176.015533 593.260193,178.010147 591.842529,180.004791 
	C592.566406,175.280991 593.290161,170.557190 594.097168,165.421570 
z"/>
<path fill="#D6D6D7" opacity="1.000000" stroke="none" 
	d="
M553.657227,208.987366 
	C554.154480,210.793549 554.313171,212.422577 554.563110,214.988663 
	C542.826965,218.458817 532.714172,209.329376 519.770935,211.285324 
	C519.375488,213.064453 518.674622,216.217728 517.957764,219.764603 
	C513.235779,215.903900 511.652466,210.153870 511.105408,204.251022 
	C510.620880,199.022766 511.105438,193.704681 511.875610,188.143478 
	C513.691833,186.649216 514.794678,185.437729 515.797546,184.336014 
	C517.764282,187.411789 519.622620,190.045212 521.196045,192.839127 
	C523.926208,197.687180 529.726685,197.481888 533.391479,200.461884 
	C536.931091,203.340103 539.758545,203.134720 543.120789,200.952728 
	C544.835999,205.757477 548.894775,207.520676 553.657227,208.987366 
z"/>
<path fill="#E0E0E1" opacity="1.000000" stroke="none" 
	d="
M442.522736,158.168884 
	C444.256866,156.561035 445.630798,155.169769 446.984985,153.759552 
	C448.528503,152.152222 449.870361,149.407471 451.622223,149.119736 
	C457.031769,148.231171 462.210266,144.514664 467.938690,147.053391 
	C469.121887,147.577759 470.285889,149.168549 470.569672,150.462753 
	C471.010925,152.475250 470.690186,154.654846 470.932129,157.042801 
	C471.171875,157.321991 471.223328,157.237427 470.844940,157.554352 
	C470.916565,158.810806 471.366547,159.750351 471.816528,160.689880 
	C470.868622,167.843491 469.920685,174.997086 468.553375,182.473145 
	C467.719727,179.700500 467.341675,176.599976 466.878906,173.512146 
	C466.550903,171.323441 466.762756,168.543808 465.494720,167.179352 
	C464.599518,166.216080 461.577911,166.948456 459.602844,167.374435 
	C458.416168,167.630356 457.097656,168.525635 456.388855,169.524261 
	C453.687195,173.330460 450.815247,172.596710 448.080963,169.890640 
	C445.155060,166.994904 443.793091,168.389923 442.974731,171.456131 
	C442.467163,173.357834 442.524292,175.420456 441.937988,177.288452 
	C441.115814,179.908035 439.930878,182.413742 438.901123,184.968170 
	C439.985382,176.104477 441.069611,167.240784 442.522736,158.168884 
M468.438843,166.488052 
	C468.438843,166.488052 468.519592,166.445450 468.438843,166.488052 
z"/>
<path fill="#E0E0E1" opacity="1.000000" stroke="none" 
	d="
M515.200439,163.753250 
	C516.641968,160.917480 518.117371,158.190506 518.958313,156.636124 
	C525.142334,157.822464 530.936401,158.692596 536.588196,160.124298 
	C539.250122,160.798615 541.638733,162.551712 544.491577,163.905426 
	C544.001526,170.086655 542.737732,176.159622 542.472046,182.275940 
	C542.242615,187.558685 539.458252,193.000961 542.475281,198.596069 
	C537.817322,196.577728 539.317322,192.244858 538.609985,188.622284 
	C538.333313,187.204971 537.952576,185.245331 536.945984,184.624817 
	C530.578125,180.699219 524.021423,177.079971 516.907410,173.004684 
	C516.201416,175.125214 515.710815,176.970520 514.966187,178.706909 
	C514.455627,179.897507 513.591858,180.936646 512.885986,182.043488 
	C513.315918,177.481949 513.745911,172.920425 514.961853,168.050323 
	C515.560791,166.642059 515.373657,165.542358 515.186584,164.442673 
	C515.286194,164.221664 515.302063,164.028122 515.200439,163.753250 
M516.440613,171.488739 
	C516.440613,171.488739 516.519897,171.447220 516.440613,171.488739 
z"/>
<path fill="#316E8F" opacity="1.000000" stroke="none" 
	d="
M69.048897,161.034027 
	C67.264931,168.227997 65.480965,175.421951 63.104168,182.620453 
	C56.725410,177.959335 50.525379,176.717377 43.288067,179.248367 
	C38.723640,180.844589 33.826809,180.936020 29.947834,176.929871 
	C31.735968,169.418045 33.524105,161.906204 35.891315,154.435471 
	C37.722404,156.603226 38.460407,159.755234 40.312969,160.683914 
	C49.706219,165.392715 59.418694,164.663315 69.048897,161.034027 
z"/>
<path fill="#3C88A3" opacity="1.000000" stroke="none" 
	d="
M86.946167,134.424500 
	C87.672005,133.056244 88.422531,132.029770 89.223282,131.044113 
	C90.694206,129.233551 91.974960,128.623672 94.019196,130.728546 
	C95.023712,131.762863 97.177917,131.866608 98.846336,132.022705 
	C100.898216,132.214706 102.997772,132.153519 105.056282,131.971069 
	C111.801750,131.373215 118.537941,130.670761 125.678436,129.989197 
	C128.706390,134.381348 131.333603,138.792816 133.983032,143.903656 
	C132.580215,145.048096 131.148743,145.881256 129.731537,145.857697 
	C126.749916,145.808105 123.782204,145.147308 120.797203,145.028625 
	C114.842529,144.791809 108.928116,146.992859 102.889839,143.511993 
	C100.675606,142.235550 96.480583,144.395187 93.189117,144.987427 
	C91.123924,141.586487 89.058723,138.185577 86.946167,134.424500 
z"/>
<path fill="#DADADB" opacity="1.000000" stroke="none" 
	d="
M438.558105,185.152954 
	C439.930878,182.413742 441.115814,179.908035 441.937988,177.288452 
	C442.524292,175.420456 442.467163,173.357834 442.974731,171.456131 
	C443.793091,168.389923 445.155060,166.994904 448.080963,169.890640 
	C450.815247,172.596710 453.687195,173.330460 456.388855,169.524261 
	C457.097656,168.525635 458.416168,167.630356 459.602844,167.374435 
	C461.577911,166.948456 464.599518,166.216080 465.494720,167.179352 
	C466.762756,168.543808 466.550903,171.323441 466.878906,173.512146 
	C467.341675,176.599976 467.719727,179.700500 468.480286,182.894669 
	C468.151062,186.224274 467.475525,189.454834 466.110229,192.686768 
	C456.419373,190.919708 447.522552,188.095596 438.159180,189.996323 
	C438.177826,188.443466 438.196442,186.890594 438.558105,185.152954 
z"/>
<path fill="#397F9D" opacity="1.000000" stroke="none" 
	d="
M166.955505,151.918579 
	C166.998154,151.466324 167.040802,151.014053 167.353180,150.135010 
	C167.804291,149.526672 167.918396,149.309723 167.965256,149.057388 
	C167.994736,148.874237 168.024216,148.691071 168.300888,148.104523 
	C168.764221,147.483719 168.900009,147.224258 168.955444,146.922729 
	C168.955444,146.922729 169.048279,146.441147 169.297714,146.069565 
	C169.764252,145.477005 169.901703,145.214325 169.959503,144.909943 
	C170.429016,143.370407 170.898529,141.830872 171.769348,140.484650 
	C172.989319,141.110718 173.761383,141.737473 174.633667,141.947037 
	C187.002777,144.918732 198.779907,140.492004 210.794098,138.993103 
	C208.424332,145.551254 206.054565,152.109406 203.032761,158.704620 
	C193.296951,155.326324 184.036789,154.006088 174.379852,155.924286 
	C171.064987,156.582733 168.087204,155.737946 166.955505,151.918579 
z"/>
<path fill="#E0E0E1" opacity="1.000000" stroke="none" 
	d="
M388.978821,179.681778 
	C388.233948,179.320602 387.299988,178.738846 387.084656,177.958725 
	C385.365662,171.731033 384.459808,171.174469 378.030731,172.475235 
	C373.280243,173.436386 368.774384,174.036316 366.747711,167.792679 
	C366.426239,166.802353 363.554840,166.639725 361.529114,166.044586 
	C361.527222,163.441833 361.858582,160.888916 362.539185,158.151031 
	C364.595032,155.568375 366.301666,153.170700 368.733917,149.753555 
	C373.618988,150.994797 380.166412,152.658417 386.714111,154.322098 
	C387.445251,152.094193 388.218689,149.737381 388.992126,147.380554 
	C389.725159,147.520020 390.458191,147.659470 391.191223,147.798935 
	C390.632751,151.851852 389.870178,155.890625 389.587982,159.962677 
	C389.401581,162.651749 389.905426,165.388672 390.462250,168.414230 
	C390.257050,172.272614 389.689850,175.820953 388.978821,179.681778 
z"/>
<path fill="#3C88A3" opacity="1.000000" stroke="none" 
	d="
M210.959534,138.664215 
	C198.779907,140.492004 187.002777,144.918732 174.633667,141.947037 
	C173.761383,141.737473 172.989319,141.110718 172.063324,140.294479 
	C174.749268,133.370834 177.542542,126.830658 180.665848,120.488182 
	C183.667313,125.723511 188.599731,128.068253 193.554077,128.780762 
	C200.613358,129.795990 207.921997,129.673660 214.837402,126.992088 
	C213.599930,130.773178 212.362442,134.554260 210.959534,138.664215 
z"/>
<path fill="#CCCDCF" opacity="1.000000" stroke="none" 
	d="
M629.518250,257.173157 
	C634.984131,252.035568 640.395508,254.895889 646.088623,255.721329 
	C652.226318,256.611206 657.132812,257.707001 658.486450,264.890198 
	C659.359558,272.180023 656.379578,274.955963 649.981140,274.848755 
	C642.445557,274.722443 634.916077,274.233887 627.237366,273.895905 
	C627.897827,268.222107 628.528687,262.803192 629.518250,257.173157 
z"/>
<path fill="#2A638A" opacity="1.000000" stroke="none" 
	d="
M29.648701,177.137115 
	C33.826809,180.936020 38.723640,180.844589 43.288067,179.248367 
	C50.525379,176.717377 56.725410,177.959335 62.800293,182.843933 
	C61.933678,188.221832 60.778107,193.380783 59.061493,198.574432 
	C56.502167,195.069305 53.617256,193.408813 49.442692,193.975388 
	C43.588535,194.769882 37.709900,195.384033 32.481457,195.999969 
	C30.152237,194.556931 28.058056,193.259521 25.963875,191.962112 
	C27.092440,187.089523 28.221003,182.216949 29.648701,177.137115 
z"/>
<path fill="#4DB1C2" opacity="1.000000" stroke="none" 
	d="
M100.041435,85.596252 
	C97.383308,88.882103 94.667870,88.213577 90.927658,87.409744 
	C83.303665,85.771233 75.299896,85.994820 67.533669,84.884308 
	C63.447411,84.300011 59.532124,82.520119 55.221363,81.112854 
	C55.543228,78.194031 56.183369,75.442429 57.388054,72.415146 
	C59.736595,72.422180 61.527851,72.986526 63.303364,72.940697 
	C72.897202,72.693077 82.487144,72.294273 92.078430,71.947601 
	C94.716331,76.376938 97.354233,80.806282 100.041435,85.596252 
z"/>
<path fill="#397F9D" opacity="1.000000" stroke="none" 
	d="
M93.232803,145.330994 
	C96.480583,144.395187 100.675606,142.235550 102.889839,143.511993 
	C108.928116,146.992859 114.842529,144.791809 120.797203,145.028625 
	C123.782204,145.147308 126.749916,145.808105 129.731537,145.857697 
	C131.148743,145.881256 132.580215,145.048096 134.024109,144.261978 
	C136.016098,147.021667 137.989182,150.122406 139.946564,153.942261 
	C138.875763,155.981995 137.789581,158.467361 136.770477,158.440140 
	C128.108536,158.208832 119.387131,158.009903 110.836365,156.757690 
	C106.703369,156.152435 103.855392,156.075424 101.910919,160.048813 
	C99.032776,155.257401 96.154640,150.465973 93.232803,145.330994 
z"/>
<path fill="#418FA9" opacity="1.000000" stroke="none" 
	d="
M215.006287,126.663361 
	C207.921997,129.673660 200.613358,129.795990 193.554077,128.780762 
	C188.599731,128.068253 183.667313,125.723511 180.973877,120.306259 
	C182.077789,117.060440 183.203690,114.194229 184.633057,111.153122 
	C190.353928,111.652252 195.822037,113.130844 201.175690,112.793411 
	C207.635590,112.386246 213.459595,113.782295 219.691055,115.976471 
	C218.437546,119.466232 216.806366,122.900436 215.006287,126.663361 
z"/>
<path fill="#DCDCDD" opacity="1.000000" stroke="none" 
	d="
M591.488403,180.214874 
	C593.260193,178.010147 594.677856,176.015533 596.455566,173.514297 
	C603.693481,176.375336 611.611511,179.505173 619.828064,182.847626 
	C620.126648,183.060257 620.043091,183.459824 620.130127,184.137054 
	C620.338562,185.111053 620.459900,185.407822 620.581177,185.704575 
	C619.713623,192.193161 618.846130,198.681732 617.569153,205.495956 
	C616.339966,204.061752 615.682129,202.198883 614.649231,200.574570 
	C613.818604,199.268417 612.503662,197.242584 611.455627,197.273987 
	C605.876343,197.441162 602.209839,194.261063 598.341858,191.005707 
	C595.747131,188.821945 592.827576,187.359741 590.945984,192.181519 
	C590.610168,193.042145 588.951050,193.386398 587.902954,193.969116 
	C588.980042,189.454391 590.057129,184.939682 591.488403,180.214874 
z"/>
<path fill="#265A83" opacity="1.000000" stroke="none" 
	d="
M25.672741,192.205627 
	C28.058056,193.259521 30.152237,194.556931 32.481457,195.999969 
	C37.709900,195.384033 43.588535,194.769882 49.442692,193.975388 
	C53.617256,193.408813 56.502167,195.069305 58.775291,198.823578 
	C58.676392,200.794739 58.302654,202.551422 57.658283,204.879349 
	C57.258900,205.962219 57.130154,206.473846 57.001404,206.985474 
	C56.976875,207.432816 56.952351,207.880142 56.508839,208.672241 
	C51.444473,209.358673 46.800732,209.936401 42.153206,209.968597 
	C38.321129,209.995132 34.253075,210.054504 30.716202,208.848358 
	C27.292711,207.680893 24.510275,207.397629 21.550167,209.396484 
	C21.550167,209.396484 21.534939,209.228271 21.712923,208.902573 
	C21.917833,208.374466 21.944757,208.172073 21.971682,207.969681 
	C23.108324,202.796173 24.244965,197.622650 25.672741,192.205627 
z"/>
<path fill="#316E8F" opacity="1.000000" stroke="none" 
	d="
M193.975067,181.142029 
	C185.722672,177.486542 177.650726,177.359222 169.295685,180.300232 
	C164.975250,181.821030 159.618805,179.515823 157.005554,175.365143 
	C158.321884,171.790451 159.658844,168.588715 161.595673,165.156067 
	C164.763458,165.933304 167.309158,167.719330 169.903702,167.793350 
	C175.959335,167.966064 182.071960,167.603775 188.096664,166.901779 
	C192.380264,166.402664 196.558167,164.996628 200.783249,163.995361 
	C198.600830,169.645920 196.418427,175.296494 193.975067,181.142029 
z"/>
<path fill="#D6D6D7" opacity="1.000000" stroke="none" 
	d="
M587.585205,194.109161 
	C588.951050,193.386398 590.610168,193.042145 590.945984,192.181519 
	C592.827576,187.359741 595.747131,188.821945 598.341858,191.005707 
	C602.209839,194.261063 605.876343,197.441162 611.455627,197.273987 
	C612.503662,197.242584 613.818604,199.268417 614.649231,200.574570 
	C615.682129,202.198883 616.339966,204.061752 617.495422,205.907471 
	C617.881958,206.747925 617.932800,207.502487 617.543213,208.749008 
	C617.010437,210.093048 616.918030,210.945114 616.825684,211.797180 
	C616.825623,211.797180 616.717224,211.773788 616.771118,211.803070 
	C610.111938,205.165100 602.338135,207.788803 594.668396,209.245697 
	C593.457397,209.475723 591.667542,209.791489 590.980469,209.159592 
	C584.545959,203.241623 578.804016,207.930527 572.844666,210.028030 
	C571.654480,210.446930 570.044983,213.866302 569.012756,209.488098 
	C576.710938,206.169739 583.584229,202.163910 587.585205,194.109161 
z"/>
<path fill="#316E8F" opacity="1.000000" stroke="none" 
	d="
M153.856384,177.678864 
	C146.012543,178.936234 138.044296,180.076889 130.036346,180.733307 
	C125.204453,181.129395 122.026222,184.088455 118.228287,186.903442 
	C114.948227,182.276825 111.989708,177.502518 109.322098,172.310425 
	C110.897896,171.722595 112.182411,171.417587 113.467758,171.414032 
	C115.409561,171.408676 117.454857,172.065048 119.276024,171.649918 
	C126.668068,169.964966 134.023010,168.089279 141.312820,166.007858 
	C142.738861,165.600677 143.814163,163.965057 145.051254,162.896027 
	C147.939255,167.716736 150.827240,172.537445 153.856384,177.678864 
z"/>
<path fill="#49A4B8" opacity="1.000000" stroke="none" 
	d="
M224.912537,102.590309 
	C222.749771,100.677361 221.050659,97.729004 218.499710,96.242455 
	C211.506836,92.167427 204.155838,88.706985 196.575058,84.999161 
	C198.244019,80.744659 200.284531,76.494240 202.635193,72.069153 
	C208.268646,76.834961 213.740768,81.248405 221.693512,81.109665 
	C224.675201,81.057640 228.462555,79.280861 230.550629,83.337708 
	C231.548996,82.693756 232.547348,82.049805 233.827423,81.225182 
	C231.068604,88.103607 228.028076,95.162712 224.912537,102.590309 
z"/>
<path fill="#D6D6D7" opacity="1.000000" stroke="none" 
	d="
M438.074219,190.417603 
	C447.522552,188.095596 456.419373,190.919708 465.768738,192.870712 
	C466.085052,194.093018 466.053101,195.132782 465.803833,196.783356 
	C465.764832,198.612274 465.943085,199.830414 466.121338,201.048538 
	C466.121338,201.048538 466.045624,201.454147 466.049744,201.660431 
	C461.412140,207.222214 455.182617,207.908920 448.685974,207.698303 
	C447.383331,207.656082 446.100769,207.107498 444.794983,207.031219 
	C439.082581,206.697540 439.001160,206.845184 439.821808,212.613495 
	C439.904541,213.194839 439.438843,213.854202 439.087219,214.799133 
	C435.867828,207.135742 436.437103,199.006683 438.074219,190.417603 
z"/>
<path fill="#367696" opacity="1.000000" stroke="none" 
	d="
M145.014282,162.582275 
	C143.814163,163.965057 142.738861,165.600677 141.312820,166.007858 
	C134.023010,168.089279 126.668068,169.964966 119.276024,171.649918 
	C117.454857,172.065048 115.409561,171.408676 113.467758,171.414032 
	C112.182411,171.417587 110.897896,171.722595 109.287079,171.952866 
	C106.647179,168.260834 104.333206,164.508560 101.965073,160.402557 
	C103.855392,156.075424 106.703369,156.152435 110.836365,156.757690 
	C119.387131,158.009903 128.108536,158.208832 136.770477,158.440140 
	C137.789581,158.467361 138.875763,155.981995 139.985779,154.297607 
	C141.686234,156.712051 143.331772,159.490295 145.014282,162.582275 
z"/>
<path fill="#DADADB" opacity="1.000000" stroke="none" 
	d="
M512.805176,182.418564 
	C513.591858,180.936646 514.455627,179.897507 514.966187,178.706909 
	C515.710815,176.970520 516.201416,175.125214 516.907410,173.004684 
	C524.021423,177.079971 530.578125,180.699219 536.945984,184.624817 
	C537.952576,185.245331 538.333313,187.204971 538.609985,188.622284 
	C539.317322,192.244858 537.817322,196.577728 542.507202,198.982605 
	C542.924438,199.431747 542.967834,199.867493 543.066040,200.627991 
	C539.758545,203.134720 536.931091,203.340103 533.391479,200.461884 
	C529.726685,197.481888 523.926208,197.687180 521.196045,192.839127 
	C519.622620,190.045212 517.764282,187.411789 515.797546,184.336014 
	C514.794678,185.437729 513.691833,186.649216 512.243958,187.912704 
	C512.174072,186.241013 512.449219,184.517319 512.805176,182.418564 
z"/>
<path fill="#235280" opacity="1.000000" stroke="none" 
	d="
M21.435978,209.623016 
	C24.510275,207.397629 27.292711,207.680893 30.716202,208.848358 
	C34.253075,210.054504 38.321129,209.995132 42.153206,209.968597 
	C46.800732,209.936401 51.444473,209.358673 56.451782,209.003357 
	C55.279751,215.468933 52.798100,221.350632 46.191677,224.695709 
	C40.670803,224.025833 35.695145,223.613235 30.715227,223.260834 
	C29.656452,223.185913 28.180717,223.801407 27.584082,223.292847 
	C24.918905,221.021088 22.502541,218.457413 19.996311,215.999176 
	C20.026770,215.539627 20.057230,215.080078 20.341816,214.084366 
	C20.723492,213.015396 20.851046,212.482574 20.978600,211.949768 
	C21.092997,211.249695 21.207394,210.549622 21.435978,209.623016 
z"/>
<path fill="#3F8CA5" opacity="1.000000" stroke="none" 
	d="
M45.620201,115.110748 
	C46.002453,118.450584 45.832428,122.041611 46.279251,125.554176 
	C46.398418,126.490952 48.442871,127.927345 49.540363,127.872513 
	C55.940609,127.552750 62.315304,126.730049 68.715248,126.389206 
	C70.105476,126.315170 71.737534,127.282600 72.942513,128.189713 
	C74.209702,129.143661 75.098099,130.600769 76.475113,131.911957 
	C76.127907,135.208252 75.457603,138.430603 74.048630,141.843628 
	C67.582520,140.485352 62.061302,137.914307 55.838848,138.952454 
	C53.914654,139.273453 51.671375,139.551849 49.960213,138.874542 
	C46.799225,137.623322 43.923416,135.651611 40.928799,133.980072 
	C42.385578,127.764229 43.842358,121.548378 45.620201,115.110748 
z"/>
<path fill="#367696" opacity="1.000000" stroke="none" 
	d="
M200.936493,163.685486 
	C196.558167,164.996628 192.380264,166.402664 188.096664,166.901779 
	C182.071960,167.603775 175.959335,167.966064 169.903702,167.793350 
	C167.309158,167.719330 164.763458,165.933304 161.760742,164.871841 
	C162.998245,160.645111 164.670563,156.471680 166.649185,152.108414 
	C168.087204,155.737946 171.064987,156.582733 174.379852,155.924286 
	C184.036789,154.006088 193.296951,155.326324 202.725098,158.905655 
	C202.409546,160.504944 201.749634,161.940277 200.936493,163.685486 
z"/>
<path fill="#367696" opacity="1.000000" stroke="none" 
	d="
M69.031624,161.027313 
	C59.418694,164.663315 49.706219,165.392715 40.312969,160.683914 
	C38.460407,159.755234 37.722404,156.603226 36.200184,154.220856 
	C35.977081,153.527405 36.024181,153.089661 36.375191,152.292450 
	C36.767170,151.264328 36.855240,150.595688 36.943314,149.927032 
	C37.079483,148.723907 37.215652,147.520798 37.730511,146.471771 
	C39.515835,147.710037 40.857418,149.622711 42.340046,149.739136 
	C49.924957,150.334717 57.570648,150.929626 65.142563,150.529861 
	C68.097816,150.373856 69.759407,150.618835 71.097847,153.050278 
	C70.721313,154.471359 70.344772,155.892456 69.680458,157.919556 
	C69.272812,159.365463 69.152954,160.205353 69.033089,161.045242 
	C69.033089,161.045242 69.014351,161.020599 69.031624,161.027313 
z"/>
<path fill="#397F9D" opacity="1.000000" stroke="none" 
	d="
M71.411125,152.829132 
	C69.759407,150.618835 68.097816,150.373856 65.142563,150.529861 
	C57.570648,150.929626 49.924957,150.334717 42.340046,149.739136 
	C40.857418,149.622711 39.515835,147.710037 38.032684,146.266968 
	C38.737289,142.077087 39.518406,138.246078 40.614159,134.197571 
	C43.923416,135.651611 46.799225,137.623322 49.960213,138.874542 
	C51.671375,139.551849 53.914654,139.273453 55.838848,138.952454 
	C62.061302,137.914307 67.582520,140.485352 73.726418,142.056137 
	C73.336723,145.587997 72.530563,149.097992 71.411125,152.829132 
z"/>
<path fill="#D6D6D7" opacity="1.000000" stroke="none" 
	d="
M359.444336,208.999176 
	C358.999420,207.169846 358.974487,205.340485 359.005676,203.512070 
	C359.092346,198.430649 361.205933,197.426300 366.141815,197.307510 
	C369.766724,197.220276 373.378693,194.983002 376.909149,193.496536 
	C378.077423,193.004654 378.880249,191.703384 380.012238,191.055298 
	C382.927948,189.386047 384.702576,190.041870 385.012634,193.673523 
	C385.243591,196.378540 385.727692,199.061951 386.468170,201.875610 
	C386.837280,201.996246 386.991394,202.424026 387.002960,202.962555 
	C387.025116,203.709457 387.035736,203.917831 387.046356,204.126221 
	C387.513336,204.723907 387.980347,205.321579 388.873138,206.437988 
	C389.522522,207.159210 389.746124,207.361710 389.969757,207.564224 
	C389.969757,207.564224 389.945923,207.462982 389.966370,207.515869 
	C379.954468,208.045715 369.922180,208.522644 359.444336,208.999176 
z"/>
<path fill="#214E7B" opacity="1.000000" stroke="none" 
	d="
M19.704407,216.230560 
	C22.502541,218.457413 24.918905,221.021088 27.584082,223.292847 
	C28.180717,223.801407 29.656452,223.185913 30.715227,223.260834 
	C35.695145,223.613235 40.670803,224.025833 45.850937,224.761414 
	C43.038174,226.763748 40.172050,229.382324 36.975674,229.880066 
	C30.262289,230.925491 23.375385,230.856628 15.619578,231.298782 
	C17.088188,225.554001 18.250343,221.007965 19.704407,216.230560 
z"/>
<path fill="#EBECF1" opacity="1.000000" stroke="none" 
	d="
M478.914398,108.794174 
	C478.525757,106.830315 477.647339,104.395996 478.051392,102.197342 
	C478.568024,99.385811 477.691193,98.467613 475.197571,98.455254 
	C468.266602,98.420929 461.335358,98.443344 455.061066,98.443344 
	C453.856750,101.890518 452.611359,104.456619 452.091553,107.162125 
	C451.161469,112.003464 450.779114,116.948586 449.910706,121.804337 
	C449.707306,122.941635 448.476654,123.895210 447.310364,124.938644 
	C447.934479,118.551407 449.001160,112.164108 449.984253,105.763969 
	C450.454041,102.705528 450.765320,99.622749 451.215698,96.011330 
	C460.133942,96.011330 469.073730,95.929718 478.005798,96.154205 
	C478.785919,96.173813 480.168701,98.219849 480.144196,99.299049 
	C480.074982,102.349304 479.419159,105.386246 478.914398,108.794174 
z"/>
<path fill="#EBECF1" opacity="1.000000" stroke="none" 
	d="
M626.896118,143.574493 
	C626.375854,142.006256 625.397095,139.968506 625.577026,138.038773 
	C626.657593,126.449074 628.429993,128.179672 617.319641,128.004730 
	C615.994568,127.983871 614.668396,127.980492 613.343384,128.005249 
	C609.705872,128.073242 605.305298,126.955101 602.673279,128.622086 
	C600.572632,129.952545 600.653381,134.693466 599.690369,137.897858 
	C599.573914,138.285278 598.986450,138.531128 598.239258,138.926132 
	C598.361328,134.827118 598.861328,130.644562 599.446533,125.748932 
	C609.014404,125.748932 618.678894,125.748932 629.284485,125.748932 
	C628.566162,131.157761 627.769592,137.156342 626.896118,143.574493 
z"/>
<path fill="#EBECF1" opacity="1.000000" stroke="none" 
	d="
M398.903015,108.744164 
	C397.894684,108.830650 396.954041,108.667191 395.760590,108.459793 
	C396.712830,105.614784 397.572968,103.044853 398.656769,99.806732 
	C397.105347,99.512161 395.772247,99.070465 394.429626,99.039276 
	C390.291534,98.943108 386.113739,99.348549 382.018219,98.920204 
	C376.317108,98.323944 372.083038,99.433929 370.544617,105.998314 
	C370.457184,103.440155 370.477112,100.637825 371.187592,98.023148 
	C371.433838,97.116982 373.382568,96.133972 374.571991,96.110321 
	C382.867798,95.945335 391.168427,96.023109 400.345306,96.023109 
	C399.873413,99.234512 399.436493,102.207977 398.737061,105.760406 
	C398.595093,106.890930 398.715637,107.442505 398.836182,107.994072 
	C398.881012,108.160782 398.925873,108.327499 398.903015,108.744164 
z"/>
<path fill="#EBECF1" opacity="1.000000" stroke="none" 
	d="
M676.901489,128.673706 
	C669.249817,128.677917 661.621460,127.692749 654.114197,128.273270 
	C648.904541,128.676117 649.924622,134.394470 648.883484,138.097260 
	C648.070496,140.988586 647.360901,143.908981 646.229736,146.882568 
	C646.579468,140.984207 647.164673,134.996399 648.150757,129.075363 
	C648.343384,127.919006 650.028320,126.222435 651.133240,126.134453 
	C658.465149,125.550606 665.826599,125.337029 673.675049,125.432610 
	C675.164795,126.258377 676.157837,126.654526 677.150879,127.050674 
	C677.092773,127.484604 677.034607,127.918541 676.901489,128.673706 
z"/>
<path fill="#EBECF1" opacity="1.000000" stroke="none" 
	d="
M503.001953,129.646088 
	C499.714539,129.330170 496.615845,128.311600 493.460663,128.087036 
	C488.847443,127.758659 484.186371,128.136215 479.563171,127.887711 
	C478.594147,127.835617 477.700989,126.371994 476.909912,125.222656 
	C485.267670,124.949898 493.494629,124.852577 501.705231,125.173904 
	C504.192535,125.271255 504.707092,127.191856 503.001953,129.646088 
z"/>
<path fill="#EBECF1" opacity="1.000000" stroke="none" 
	d="
M549.912720,128.555878 
	C541.601929,128.681046 533.352661,128.061676 525.131409,128.322662 
	C523.567261,128.372314 522.113708,131.904663 520.241699,133.893661 
	C519.920044,132.313751 519.937744,130.668945 520.017944,129.027222 
	C520.143066,126.465340 521.166260,125.716507 524.006042,125.858192 
	C531.558899,126.235023 539.144409,125.914711 546.711243,126.101814 
	C547.818115,126.129181 548.893921,127.414032 549.912720,128.555878 
z"/>
<path fill="#D9D9DA" opacity="1.000000" stroke="none" 
	d="
M413.920288,222.556122 
	C413.088715,222.292374 411.926025,221.717636 411.655945,220.861343 
	C411.236176,219.530472 411.604126,217.971741 411.322479,216.573151 
	C410.112823,210.566437 410.096558,210.667511 404.124847,212.329407 
	C402.896729,212.671173 401.396729,212.035812 400.022034,211.850830 
	C400.315155,211.149796 400.608307,210.448776 400.954285,209.462616 
	C402.429016,208.874847 403.932190,208.772842 405.259064,208.235580 
	C411.709564,205.623734 411.774200,205.568634 412.933685,212.374359 
	C413.481384,215.589172 413.649231,218.868729 413.920288,222.556122 
z"/>
<path fill="#EBECF1" opacity="1.000000" stroke="none" 
	d="
M361.533325,126.087265 
	C360.476593,126.771782 358.851379,128.085892 357.462250,127.871346 
	C352.487488,127.103035 350.623108,129.411575 350.143555,133.920898 
	C350.001465,135.257477 349.159729,136.519684 348.262848,137.888885 
	C348.327148,134.118362 348.767181,130.274902 349.254822,126.015617 
	C353.224487,126.015617 357.148834,126.015617 361.533325,126.087265 
z"/>
<path fill="#50B8C6" opacity="1.000000" stroke="none" 
	d="
M91.831497,71.589279 
	C82.487144,72.294273 72.897202,72.693077 63.303364,72.940697 
	C61.527851,72.986526 59.736595,72.422180 57.562706,72.069809 
	C57.636112,71.668442 58.099953,71.046669 58.562634,71.047539 
	C69.570015,71.068138 80.577278,71.155647 91.831497,71.589279 
z"/>
<path fill="#D6D6D7" opacity="1.000000" stroke="none" 
	d="
M320.991699,207.634171 
	C318.793640,206.820953 316.451355,205.691559 314.016846,204.517700 
	C312.660431,204.517700 310.869965,204.517700 309.017639,204.197571 
	C310.573395,202.592606 312.191071,201.307770 314.345398,199.596695 
	C316.514832,202.172943 318.681152,204.745468 320.991699,207.634171 
z"/>
<path fill="#4CABBE" opacity="1.000000" stroke="none" 
	d="
M198.557281,45.964413 
	C196.690750,48.125404 194.463104,50.325310 192.061356,52.697155 
	C193.340591,53.602642 194.581711,54.481155 195.878906,55.709328 
	C193.016022,55.277470 190.097076,54.495953 185.441864,53.249569 
	C190.474716,50.390202 194.335449,48.196762 198.557281,45.964413 
z"/>
<path fill="#EBECF1" opacity="1.000000" stroke="none" 
	d="
M369.817108,107.816116 
	C369.992798,112.982124 369.917938,118.384804 369.667114,123.779312 
	C369.647980,124.191078 368.383545,124.544968 367.286011,124.924850 
	C367.756836,119.299530 368.639618,113.675133 369.817108,107.816116 
z"/>
<path fill="#EBECF1" opacity="1.000000" stroke="none" 
	d="
M441.547974,126.091583 
	C440.474304,126.777084 438.991760,127.512611 437.428040,127.971764 
	C434.948792,128.699753 432.415314,129.242950 429.534485,129.929092 
	C429.040192,126.403885 429.307465,123.721382 434.247772,125.841812 
	C436.198547,126.679085 438.798401,126.004051 441.547974,126.091583 
z"/>
<path fill="#EBECF1" opacity="1.000000" stroke="none" 
	d="
M681.589966,133.932037 
	C681.162048,138.060226 678.295105,139.221680 674.247681,139.163361 
	C674.247681,137.143845 674.247681,135.234131 674.247681,132.834259 
	C674.819702,133.608307 675.210510,134.137131 675.840454,134.849594 
	C678.742493,139.323257 679.289978,133.146820 681.589966,133.932037 
z"/>
<path fill="#D6D6D7" opacity="1.000000" stroke="none" 
	d="
M320.406860,223.071106 
	C321.330658,221.608688 322.627411,220.093735 323.891907,218.552338 
	C324.949402,217.263229 325.969208,215.943192 327.023315,214.260498 
	C328.013947,214.740570 328.987030,215.597000 330.364014,216.808899 
	C326.958771,219.007904 323.862305,221.007507 320.406860,223.071106 
z"/>
<path fill="#EBECF1" opacity="1.000000" stroke="none" 
	d="
M429.077576,132.413055 
	C431.369263,134.485428 430.708710,140.457855 427.555847,142.970917 
	C427.779846,139.602844 428.390961,136.211288 429.077576,132.413055 
z"/>
<path fill="#EBECF1" opacity="1.000000" stroke="none" 
	d="
M689.592285,128.937653 
	C689.623352,133.676041 685.536194,133.003510 682.222168,133.939362 
	C684.327759,132.278320 686.776489,130.635391 689.592285,128.937653 
z"/>
<path fill="#D6D6D7" opacity="1.000000" stroke="none" 
	d="
M325.934998,212.592545 
	C325.034943,213.547348 324.021698,214.211990 322.264893,215.364380 
	C322.617828,213.101608 322.814545,211.840424 323.031433,210.218842 
	C323.975006,210.673065 324.898407,211.487717 325.934998,212.592545 
z"/>
<path fill="#EBECF1" opacity="1.000000" stroke="none" 
	d="
M366.586426,124.928177 
	C366.562347,125.813538 366.198120,126.748596 365.833923,127.683655 
	C365.251617,127.301994 364.669312,126.920334 364.014435,126.193626 
	C364.710022,125.558334 365.478149,125.268097 366.586426,124.928177 
z"/>
<path fill="#EBECF1" opacity="1.000000" stroke="none" 
	d="
M446.601562,124.951317 
	C446.570587,125.831490 446.197296,126.760796 445.823975,127.690109 
	C445.245270,127.306976 444.666595,126.923851 444.015686,126.196426 
	C444.715393,125.568230 445.487305,125.284340 446.601562,124.951317 
z"/>
<path fill="#DADADB" opacity="1.000000" stroke="none" 
	d="
M466.440491,200.893204 
	C465.943085,199.830414 465.764832,198.612274 465.851013,197.171143 
	C466.330200,198.211380 466.544891,199.474625 466.440491,200.893204 
z"/>
<path fill="#D6D6D7" opacity="1.000000" stroke="none" 
	d="
M519.908203,222.410431 
	C520.855530,222.845779 521.874939,223.631012 522.924744,224.771667 
	C521.963501,224.338181 520.971924,223.549255 519.908203,222.410431 
z"/>
<path fill="#E6E6E7" opacity="1.000000" stroke="none" 
	d="
M677.459534,126.915970 
	C676.157837,126.654526 675.164795,126.258377 674.085754,125.533722 
	C675.255920,125.730560 676.512024,126.255913 677.459534,126.915970 
z"/>
<path fill="#D6D6D7" opacity="1.000000" stroke="none" 
	d="
M468.818909,205.655685 
	C468.218628,204.934448 467.604950,203.871933 466.997131,202.488220 
	C467.603821,203.216125 468.204651,204.265259 468.818909,205.655685 
z"/>
<path fill="#E5E5E5" opacity="1.000000" stroke="none" 
	d="
M515.099365,164.687988 
	C515.373657,165.542358 515.560791,166.642059 515.323792,167.853546 
	C514.937134,166.954681 514.974609,165.944000 515.099365,164.687988 
z"/>
<path fill="#D9D9DA" opacity="1.000000" stroke="none" 
	d="
M235.043167,215.410095 
	C235.618729,215.580139 236.294113,216.027222 236.959335,216.808899 
	C236.347122,216.658035 235.745071,216.172592 235.043167,215.410095 
z"/>
<path fill="#E6E6E7" opacity="1.000000" stroke="none" 
	d="
M239.647766,144.994507 
	C239.280899,145.812347 238.610519,146.757782 237.536652,147.623596 
	C237.870178,146.736664 238.607208,145.929367 239.647766,144.994507 
z"/>
<path fill="#E6E6E7" opacity="1.000000" stroke="none" 
	d="
M236.722229,147.927109 
	C236.606750,148.748169 236.225555,149.677048 235.754913,150.351288 
	C235.929169,149.409424 236.192841,148.722168 236.722229,147.927109 
z"/>
<path fill="#D2D2D3" opacity="1.000000" stroke="none" 
	d="
M617.005981,211.531006 
	C616.918030,210.945114 617.010437,210.093048 617.453430,209.118271 
	C617.598145,209.751999 617.392212,210.508423 617.005981,211.531006 
z"/>
<path fill="#D6D6D7" opacity="1.000000" stroke="none" 
	d="
M357.894867,212.317841 
	C358.115967,212.616028 358.424316,213.244156 358.450317,213.933441 
	C358.106049,213.545654 358.044067,213.096725 357.894867,212.317841 
z"/>
<path fill="#E5E5E5" opacity="1.000000" stroke="none" 
	d="
M471.891174,160.299057 
	C471.366547,159.750351 470.916565,158.810806 470.893738,157.562622 
	C471.535889,158.138733 471.750854,159.023468 471.891174,160.299057 
z"/>
<path fill="#316E8F" opacity="1.000000" stroke="none" 
	d="
M69.328705,160.874664 
	C69.152954,160.205353 69.272812,159.365463 69.606003,158.286896 
	C69.754326,158.933487 69.689323,159.818787 69.328705,160.874664 
z"/>
<path fill="#316E8F" opacity="1.000000" stroke="none" 
	d="
M36.682045,150.088104 
	C36.855240,150.595688 36.767170,151.264328 36.435074,151.967651 
	C36.267628,151.417938 36.344200,150.833557 36.682045,150.088104 
z"/>
<path fill="#4CABBE" opacity="1.000000" stroke="none" 
	d="
M196.074142,56.352005 
	C196.490585,56.189198 197.032135,56.309704 197.770569,56.633041 
	C197.378067,56.769024 196.788651,56.702171 196.074142,56.352005 
z"/>
<path fill="#214E7B" opacity="1.000000" stroke="none" 
	d="
M20.740999,212.118652 
	C20.851046,212.482574 20.723492,213.015396 20.400547,213.743988 
	C20.304569,213.389038 20.403984,212.838287 20.740999,212.118652 
z"/>
<path fill="#E5E5E5" opacity="1.000000" stroke="none" 
	d="
M398.913910,107.667686 
	C398.715637,107.442505 398.595093,106.890930 398.656769,106.178116 
	C398.889862,106.458344 398.940735,106.899826 398.913910,107.667686 
z"/>
<path fill="#235280" opacity="1.000000" stroke="none" 
	d="
M57.237453,206.828583 
	C57.130154,206.473846 57.258900,205.962219 57.575241,205.261642 
	C57.666386,205.605698 57.569942,206.138687 57.237453,206.828583 
z"/>
<path fill="#367696" opacity="1.000000" stroke="none" 
	d="
M169.729340,145.004700 
	C169.901703,145.214325 169.764252,145.477005 169.368713,145.834839 
	C169.062775,145.599335 169.165741,145.308578 169.729340,145.004700 
z"/>
<path fill="#D6D6D7" opacity="1.000000" stroke="none" 
	d="
M318.283569,224.874146 
	C318.179413,224.559128 318.404510,224.349182 318.910706,224.123077 
	C318.935852,224.330170 318.742859,224.620926 318.283569,224.874146 
z"/>
<path fill="#DADADB" opacity="1.000000" stroke="none" 
	d="
M390.138306,207.321213 
	C389.746124,207.361710 389.522522,207.159210 389.152405,206.528610 
	C389.439514,206.426392 389.873169,206.752304 390.138306,207.321213 
z"/>
<path fill="#4CABBE" opacity="1.000000" stroke="none" 
	d="
M199.725586,45.127712 
	C199.833801,45.427269 199.623840,45.637924 199.138885,45.860458 
	C199.106827,45.656090 199.288010,45.378250 199.725586,45.127712 
z"/>
<path fill="#235280" opacity="1.000000" stroke="none" 
	d="
M21.775911,208.063324 
	C21.944757,208.172073 21.917833,208.374466 21.789715,208.867416 
	C21.561386,208.934692 21.405022,208.721222 21.324915,208.482193 
	C21.300844,208.410370 21.489134,208.267380 21.775911,208.063324 
z"/>
<path fill="#367696" opacity="1.000000" stroke="none" 
	d="
M168.724670,147.012238 
	C168.900009,147.224258 168.764221,147.483719 168.370728,147.835144 
	C168.060104,147.599121 168.160278,147.309982 168.724670,147.012238 
z"/>
<path fill="#DADADB" opacity="1.000000" stroke="none" 
	d="
M387.313965,204.031982 
	C387.035736,203.917831 387.025116,203.709457 387.029907,203.188293 
	C387.224060,203.229584 387.402832,203.583664 387.313965,204.031982 
z"/>
<path fill="#367696" opacity="1.000000" stroke="none" 
	d="
M167.783188,149.140137 
	C167.918396,149.309723 167.804291,149.526672 167.471436,149.815475 
	C167.251144,149.624115 167.344864,149.390823 167.783188,149.140137 
z"/>
<path fill="#265A83" opacity="1.000000" stroke="none" 
	d="
M121.208282,193.268890 
	C121.459343,193.175247 121.664162,193.374542 121.893097,193.832031 
	C121.637390,193.976273 121.385666,193.800125 121.208282,193.268890 
z"/>
<path fill="#E0E1E2" opacity="1.000000" stroke="none" 
	d="
M620.760376,185.461975 
	C620.459900,185.407822 620.338562,185.111053 620.131165,184.341156 
	C620.343262,184.318481 620.641418,184.768921 620.760376,185.461975 
z"/>
<path fill="#EBECF1" opacity="1.000000" stroke="none" 
	d="
M370.819641,106.278122 
	C370.845215,106.441399 370.836060,106.610809 370.830139,106.547729 
	C370.833344,106.315239 370.784882,106.284256 370.819641,106.278122 
z"/>
<path fill="#418FA9" opacity="1.000000" stroke="none" 
	d="
M221.231537,113.914558 
	C221.076691,113.708542 221.215591,113.469376 221.598816,113.151779 
	C221.879456,113.385078 221.773514,113.654434 221.231537,113.914558 
z"/>
<path fill="#000000" opacity="1.000000" stroke="none" 
	d="
M669.910706,185.431580 
	C669.883911,182.949509 669.935791,180.904892 669.911377,178.427841 
	C671.135193,174.237808 672.271606,170.413773 673.765381,166.734833 
	C678.659363,154.681702 687.811768,148.481720 700.627991,146.927887 
	C712.218994,145.522644 721.728271,148.845367 728.058777,158.761765 
	C732.388245,165.543762 733.055359,173.280807 731.095703,181.567963 
	C728.113098,188.077240 725.059448,194.162689 721.941284,200.604156 
	C721.521362,200.954895 721.251770,201.104309 720.685913,201.704239 
	C719.496643,202.653214 718.689392,203.306412 717.882202,203.959610 
	C709.504944,208.819107 700.784363,212.144073 690.418152,210.087006 
	C680.937622,207.460739 673.388733,202.969482 670.703186,193.141327 
	C670.070312,190.825150 670.206726,188.298737 669.910706,185.431580 
z"/>
<path fill="#DCDCDD" opacity="1.000000" stroke="none" 
	d="
M718.247681,203.960724 
	C718.689392,203.306412 719.496643,202.653214 720.631104,201.938385 
	C720.176575,202.571808 719.394836,203.266830 718.247681,203.960724 
z"/>
<path fill="#000000" opacity="1.000000" stroke="none" 
	d="
M314.097565,164.614792 
	C314.242188,167.130676 313.633118,168.081848 311.077576,168.109558 
	C300.670166,168.222504 290.265625,168.929108 279.861450,168.900055 
	C272.321564,168.878998 264.783936,168.044434 256.680634,167.537292 
	C257.475403,165.578812 258.238281,163.698975 259.061890,161.432312 
	C264.466675,154.782990 269.759949,148.835510 278.505127,146.759613 
	C288.790070,144.318207 298.505432,144.772980 306.602295,151.580582 
	C310.128784,154.545532 311.610901,159.942047 314.097565,164.614792 
z"/>
<path fill="#49A4B8" opacity="1.000000" stroke="none" 
	d="
M231.531693,81.480553 
	C231.551758,81.519333 231.511627,81.441772 231.531693,81.480553 
z"/>
<path fill="#DADADB" opacity="1.000000" stroke="none" 
	d="
M468.479218,166.466751 
	C468.519592,166.445450 468.438843,166.488052 468.479218,166.466751 
z"/>
<path fill="#DADADB" opacity="1.000000" stroke="none" 
	d="
M516.480225,171.467987 
	C516.519897,171.447220 516.440613,171.488739 516.480225,171.467987 
z"/>
</svg>